<?xml version="1.0" encoding="UTF-8" standalone="no"?>
<svg width="94px" height="108px" viewBox="0 0 94 108" version="1.1" xmlns="http://www.w3.org/2000/svg" xmlns:xlink="http://www.w3.org/1999/xlink" xmlns:sketch="http://www.bohemiancoding.com/sketch/ns">
    <!-- Generator: Sketch 3.4 (15575) - http://www.bohemiancoding.com/sketch -->
    <title>Fill 1</title>
    <desc>Created with Sketch.</desc>
    <defs></defs>
    <g id="Page-1" stroke="none" stroke-width="1" fill="none" fill-rule="evenodd" sketch:type="MSPage">
        <path d="M0,8.00732565 C0,3.58500181 3.58438557,0 7.99410163,0 L86.0058984,0 C90.4209188,0 94,3.57795746 94,8.00732565 L94,99.9926744 C94,104.414998 90.4156144,108 86.0058984,108 L7.99410163,108 C3.57908121,108 0,104.422043 0,99.9926744 L0,8.00732565 Z M24,92 L24,68 L34,80.9230769 L24,92 Z M52,36 L62.9090909,36 C68.7459506,28.097561 71.0933504,21.0731707 72,18 L61.0909091,18 C59.4045183,22.3902439 56.4249787,29.4146341 52,36 Z M72,92 L61.3333333,92 L61.3333333,61.3170732 C61.6187223,57.6705294 60.7579414,56.6454118 59.5555556,55.902439 C54.7683768,52.5423294 39.9681352,55.925 31.1111111,59.5121951 L24,63.1219512 L24,18 L34.6666667,18 L34.6666667,46.8780488 C36.5306347,46.7276706 38.7980787,46.0956235 41.7777778,45.0731707 C52.316665,43.1943882 60.4759167,43.8251294 64.8888889,46.8780488 C68.6407916,49.4116941 72,53.2906 72,61.3170732 L72,92 Z" id="Fill-1" fill="#000000" sketch:type="MSShapeGroup"></path>
    </g>
</svg>